<?xml version="1.0" encoding="UTF-8"?>
<!DOCTYPE svg PUBLIC "-//W3C//DTD SVG 1.1//EN" "http://www.w3.org/Graphics/SVG/1.1/DTD/svg11.dtd">
<!-- Creator: CorelDRAW X7 -->
<svg xmlns="http://www.w3.org/2000/svg" xml:space="preserve" width="48px" height="48px" version="1.1" style="shape-rendering:geometricPrecision; text-rendering:geometricPrecision; image-rendering:optimizeQuality; fill-rule:evenodd; clip-rule:evenodd"
viewBox="0 0 49 49"
 xmlns:xlink="http://www.w3.org/1999/xlink">
 <defs>
  <style type="text/css">
   <![CDATA[
    .fil0 {fill:#FEFEFE}
    .fil1 {fill:#109DC8}
    .fil2 {fill:#34387A}
    .fil3 {fill:#F08628;fill-rule:nonzero}
   ]]>
  </style>
 </defs>
 <g id="Livello_x0020_1">
  <metadata id="CorelCorpID_0Corel-Layer"/>
  <g id="_2449039413488">
   <path class="fil0" d="M49 24c0,14 -11,25 -25,25 -13,0 -24,-11 -24,-25 0,-13 11,-24 24,-24 14,0 25,11 25,24z"/>
   <path class="fil0" d="M15 24c-2,0 -4,0 -6,0 0,0 0,0 0,0 -1,0 -1,1 -1,1 0,1 -1,2 -1,2 -1,1 -1,2 -1,3 -1,1 -1,1 -1,2 -1,0 -1,0 -1,0 0,1 0,1 0,1 1,0 2,0 3,0 1,0 1,0 1,0 0,0 0,-1 0,-1 0,0 0,0 0,0 1,0 2,0 3,0 0,0 0,0 0,0 0,0 0,1 0,1 0,0 0,0 1,0 0,0 0,0 1,0 1,0 2,0 3,0 0,0 0,0 0,0 0,-1 0,-1 1,-2 0,-1 0,-2 0,-2 0,-1 0,-1 0,-1 0,0 0,1 0,1 0,0 0,0 0,1 0,0 0,1 1,1 0,0 0,1 0,1 0,0 0,1 0,1 0,0 0,0 0,0 0,0 1,0 1,0 1,0 1,0 1,0 0,0 0,-1 1,-2 0,0 1,-1 1,-2 0,-1 0,-1 0,-1 0,0 0,0 0,0 0,2 0,4 0,5 1,0 2,0 3,0 0,0 1,0 1,0 0,0 0,0 0,0 0,0 0,-1 1,-1 0,0 0,0 0,0 1,0 2,0 3,0 0,0 0,0 0,0 0,0 0,1 0,1 0,0 0,0 0,0 1,0 2,0 3,0 0,0 0,0 0,0 0,-2 0,-4 0,-6 0,0 0,0 0,0 0,0 0,0 0,0 1,0 1,0 2,0 0,0 0,0 0,0 0,0 0,0 0,1 0,0 0,1 0,2 -1,1 -1,2 -1,3 0,0 0,0 0,0 1,0 2,0 3,0 0,0 0,0 0,0 0,-1 1,-2 1,-2 0,-1 0,-3 1,-4 0,0 0,0 0,0 1,0 2,0 3,0 0,0 0,0 0,0 0,0 0,-1 0,-1 0,0 0,-1 1,-2 0,0 0,0 -1,0 -5,0 -10,0 -15,0 0,0 0,0 0,0 -2,0 -3,0 -5,0 0,0 0,0 0,0 0,1 0,1 -1,2 0,1 0,1 -1,2 0,0 0,1 0,1 0,0 0,0 0,0 0,-1 0,-1 0,-2 -1,0 0,-1 0,-1 -1,-1 -1,-1 -1,-2 0,0 0,0 0,0 0,0 -1,0 -1,0 -1,0 -2,0 -3,0z"/>
   <path class="fil1" d="M28 30c1,0 1,0 2,0 0,0 0,0 0,0 0,-1 0,-3 0,-4 0,0 0,0 0,0 -1,1 -1,3 -2,4zm-1 -6c0,0 0,0 0,0 5,0 10,0 15,0 1,0 1,0 1,0 -1,1 -1,2 -1,2 0,0 0,1 0,1 0,0 0,0 0,0 -1,0 -2,0 -3,0 0,0 0,0 0,0 -1,1 -1,3 -1,4 0,0 -1,1 -1,2 0,0 0,0 0,0 -1,0 -2,0 -3,0 0,0 0,0 0,0 0,-1 0,-2 1,-3 0,-1 0,-2 0,-2 0,-1 0,-1 0,-1 0,0 0,0 0,0 -1,0 -1,0 -2,0 0,0 0,0 0,0 0,0 0,0 0,0 0,2 0,4 0,6 0,0 0,0 0,0 -1,0 -2,0 -3,0 0,0 0,0 0,0 0,0 0,-1 0,-1 0,0 0,0 0,0 -1,0 -2,0 -3,0 0,0 0,0 0,0 -1,0 -1,1 -1,1 0,0 0,0 0,0 0,0 -1,0 -1,0 0,-1 0,-2 1,-3 0,-1 0,-2 0,-3 1,-1 1,-2 1,-3z"/>
   <path class="fil2" d="M27 24c0,1 0,2 -1,3 0,1 0,2 0,3 -1,1 -1,2 -1,3 -1,0 -2,0 -3,0 0,-1 0,-3 0,-5 0,0 0,0 0,0 0,0 0,0 0,1 0,1 -1,2 -1,2 -1,1 -1,2 -1,2 0,0 0,0 -1,0 0,0 -1,0 -1,0 0,0 0,0 0,0 0,0 0,-1 0,-1 0,0 0,-1 0,-1 -1,0 -1,-1 -1,-1 0,-1 0,-1 0,-1 0,0 0,-1 0,-1 0,0 0,0 0,1 0,0 0,1 0,2 -1,1 -1,1 -1,2 0,0 0,0 0,0 -1,0 -2,0 -3,0 0,0 0,-1 0,-1 0,-1 0,-3 1,-4 0,-1 0,-2 0,-3 1,0 1,-1 1,-1 1,0 2,0 3,0 0,0 1,0 1,0 0,0 0,0 0,0 0,1 0,1 1,2 0,0 -1,1 0,1 0,1 0,1 0,2 0,0 0,0 0,0 0,0 0,-1 0,-1 1,-1 1,-1 1,-2 1,-1 1,-1 1,-2 0,0 0,0 0,0 2,0 3,0 5,0z"/>
   <path class="fil1" d="M11 26c0,0 0,0 0,0 -1,1 -2,3 -2,4 0,0 1,0 2,0 0,0 0,0 0,0 0,-1 0,-1 0,-1 0,-1 0,-2 0,-3zm4 -2c0,0 0,1 -1,1 0,1 0,2 0,3 -1,1 -1,3 -1,4 0,0 0,1 0,1 -1,0 -1,0 -1,0 -1,0 -1,0 -1,0 0,0 0,-1 0,-1 0,0 0,0 0,0 -1,0 -2,0 -3,0 0,0 0,0 0,0 0,0 0,1 0,1 0,0 0,0 -1,0 -1,0 -2,0 -3,0 0,0 0,0 0,-1 0,0 0,0 1,0 0,-1 0,-1 1,-2 0,-1 0,-2 1,-3 0,0 1,-1 1,-2 0,0 0,-1 1,-1 0,0 0,0 0,0 2,0 4,0 6,0z"/>
   <path class="fil0" d="M28 30c1,-1 1,-3 2,-4 0,0 0,0 0,0 0,1 0,3 0,4 0,0 0,0 0,0 -1,0 -1,0 -2,0z"/>
   <path class="fil0" d="M11 26c0,1 0,2 0,3 0,0 0,0 0,1 0,0 0,0 0,0 -1,0 -2,0 -2,0 0,-1 1,-3 2,-4 0,0 0,0 0,0z"/>
   <path class="fil3" d="M13 20l1 -3 -2 0 0 3 1 0zm-3 1l-1 0 0 -1 1 0 1 -3 -1 0 0 -1 1 0 1 -2 1 0 0 2 2 0 0 -2 2 0 -1 2 1 0 0 1 -2 0 0 3 1 0 0 1 -2 0 0 2 -2 0 1 -2 -2 0 -1 2 -1 0 1 -2z"/>
   <path class="fil3" d="M23 19c0,-1 -1,-2 -2,-2 -1,0 -2,2 -2,3 0,1 0,2 1,2 2,0 3,-2 3,-3zm-6 1c0,-2 2,-4 4,-4 2,0 3,2 3,3 0,2 -2,4 -4,4 -1,0 -3,-1 -3,-3z"/>
   <path class="fil3" d="M27 20c2,0 2,-1 2,-2 0,0 0,0 0,0 0,0 0,-1 -1,-1l-1 0 -1 3 1 0zm-1 -4l2 0c1,0 2,1 2,1 0,0 0,1 0,1 0,2 -1,3 -3,3l-1 0 0 2 -2 0 2 -7z"/>
   <polygon class="fil3" points="32,16 37,16 37,17 33,17 33,19 36,19 35,20 32,20 32,22 35,22 35,23 30,23 "/>
   <polygon class="fil3" points="38,16 39,16 41,21 43,16 44,16 42,23 41,23 39,18 38,23 36,23 "/>
  </g>
 </g>
</svg>
